<?xml version="1.0" standalone="no"?>
<!DOCTYPE svg PUBLIC "-//W3C//DTD SVG 20010904//EN"
 "http://www.w3.org/TR/2001/REC-SVG-20010904/DTD/svg10.dtd">
<svg version="1.0" xmlns="http://www.w3.org/2000/svg"
 width="720.000000pt" height="720.000000pt" viewBox="0 0 720.000000 720.000000"
 preserveAspectRatio="xMidYMid meet">

<g transform="translate(0.000000,720.000000) scale(0.100000,-0.100000)"
fill="#C9EE9E" stroke="none">
<path d="M2034 6540 c-290 -31 -585 -150 -799 -323 -333 -269 -530 -633 -575
-1059 -13 -125 -13 -2991 0 -3116 33 -315 148 -593 341 -827 263 -320 622
-511 1041 -555 125 -13 2991 -13 3116 0 419 44 778 235 1041 555 193 234 308
512 341 827 13 125 13 2991 0 3116 -33 315 -148 593 -341 827 -263 320 -622
511 -1041 555 -109 11 -3015 11 -3124 0z m2001 -999 c319 -55 552 -148 780
-309 107 -77 275 -247 358 -362 76 -108 192 -333 236 -461 128 -373 156 -912
70 -1344 -144 -724 -602 -1214 -1284 -1375 -163 -39 -279 -52 -520 -57 -249
-5 -404 6 -584 43 -612 127 -1068 521 -1271 1099 -130 371 -163 854 -89 1300
66 404 229 735 489 995 270 270 607 424 1061 485 161 22 598 14 754 -14z"/>
<path d="M3485 4734 c-65 -11 -151 -37 -195 -59 -198 -100 -339 -359 -392
-721 -17 -117 -17 -618 0 -729 45 -288 150 -519 285 -626 116 -93 245 -133
427 -133 334 -1 541 155 654 495 60 180 70 263 71 614 0 355 -11 456 -71 646
-43 135 -75 202 -138 286 -117 155 -259 222 -486 228 -69 2 -138 1 -155 -1z"/>
</g>
</svg>
