<!DOCTYPE svg PUBLIC "-//W3C//DTD SVG 1.1//EN" "http://www.w3.org/Graphics/SVG/1.1/DTD/svg11.dtd">

<svg xmlns="http://www.w3.org/2000/svg" viewBox="0 0 1080 1080">

<path fill="#C9EE9E" d="M185.5 1.132C88.281 13.342 12.843 89.339 1.026 186.974c-1.422 11.747-1.422 694.305 0 706.052 11.9 98.316 87.632 174.048 185.948 185.948 11.747 1.422 694.305 1.422 706.052 0 81.685-9.887 149.815-64.77 175.943-141.734 4.58-13.491 8.646-31.252 9.666-42.219.362-3.896 1.042-7.321 1.512-7.612.469-.29.853-157.127.853-348.527 0-193.668-.381-347.765-.859-347.469-.472.292-1.153-2.63-1.512-6.493-1.014-10.912-5.089-28.695-9.66-42.16-26.128-76.964-94.258-131.847-175.943-141.734C882.397-.261 195.769-.158 185.5 1.132m391.317 120.784c-4.824 3.819-5.128 7.98-4.462 61.183.702 56.029 2.204 115.466 3.244 128.311 1.122 13.873-1.411 82.738-4.106 111.59-1.309 14.025-2.669 29.55-3.021 34.5-.352 4.95-1.468 14.625-2.479 21.5-1.01 6.875-2.134 16.325-2.497 21-.363 4.675-1.323 11.425-2.132 15-.809 3.575-2.338 13.025-3.396 21-3.729 28.091-22.441 124.327-25.958 133.498-4.226 11.023-9.241 7.567-12.995-8.956-8.196-36.074-10.266-45.496-12.425-56.542-1.343-6.875-4.739-23.051-7.547-35.947-2.807-12.897-6.209-29.322-7.559-36.5-1.35-7.179-4.728-24.303-7.506-38.053-2.778-13.75-5.907-30.236-6.954-36.635-1.047-6.399-3.23-18.324-4.851-26.5-4.663-23.524-7.103-37.095-8.607-47.865-.768-5.5-2.315-15.85-3.439-23-8.831-56.198-11.518-76.289-14.581-109-1.338-14.3-2.738-34.1-3.11-44-.772-20.529-1.693-23.874-7.212-26.18-4.485-1.874-6.957-1.281-22.724 5.443-51.214 21.841-129.569 46.254-162.899 50.755-14.844 2.005-20.43 5.642-20.709 13.482-.538 15.122 3.523 60.007 8.233 91 4.79 31.51 15.382 86.002 20.896 107.5 2.681 10.45 8.553 33.85 13.049 52 11.548 46.61 24.009 90.994 36.919 131.5 2.717 8.525 7.699 24.275 11.071 35 3.371 10.725 7.932 24.9 10.134 31.5 2.202 6.6 6.164 19.2 8.805 28 2.64 8.8 6.007 19.15 7.483 23 5.281 13.782 13.428 37.517 16.889 49.2 1.937 6.54 5.812 17.72 8.612 24.845 2.799 7.125 6.225 17.215 7.612 22.421 1.387 5.206 3.858 12.509 5.49 16.229 2.767 6.303 8.274 21.581 19.868 55.117 7.593 21.962 10.362 23.773 32.213 21.071 20.533-2.539 95.709-3.131 117.834-.927 28.686 2.858 61.338 6.904 77 9.543 49.724 8.376 45.873 10.271 62.338-30.673 20.327-50.551 45.109-143.456 57.302-214.826 4.827-28.255 6.84-39.814 9.402-54 1.589-8.8 4.507-27.925 6.484-42.5 1.978-14.575 4.889-33.475 6.471-42 1.582-8.525 3.161-19.1 3.509-23.5.348-4.4 1.285-12.05 2.082-17 1.332-8.265 4.468-33.395 9.421-75.5 1.068-9.075 2.397-19.425 2.953-23 .99-6.368 3.436-30.517 8.559-84.5 1.409-14.85 3.444-34.905 4.521-44.568 1.077-9.662 1.961-20.462 1.964-24 .003-3.537.648-10.707 1.433-15.932s1.916-16.25 2.515-24.5c1.982-27.329 4.202-48.913 5.727-55.689 2.347-10.435-.256-16.032-8.681-18.663-6.18-1.929-27.221-6.04-36.5-7.13-4.95-.582-13.5-1.951-19-3.042-11.01-2.184-25.865-4.686-68-11.453-15.4-2.473-33.625-5.409-40.5-6.525-49.085-7.965-62.273-9.177-66.183-6.082M.494 540c0 191.675.115 270.087.256 174.25.141-95.838.141-252.663 0-348.5C.609 269.912.494 348.325.494 540" fill-rule="evenodd"/>

</svg>